<svg width="128" height="18" viewBox="0 0 128 18" fill="none" xmlns="http://www.w3.org/2000/svg">
<path d="M120.824 17.4791L120.812 6.07H123.596L123.607 7.08541C123.995 6.67468 124.459 6.35142 124.999 6.11563C125.539 5.87224 126.121 5.75054 126.745 5.75054C127.163 5.75054 127.582 5.81139 128 5.93309L126.905 8.73973C126.616 8.62564 126.327 8.56859 126.038 8.56859C125.589 8.56859 125.178 8.67888 124.805 8.89946C124.44 9.11243 124.148 9.40526 123.927 9.77796C123.714 10.1431 123.607 10.55 123.607 10.9987V17.4791H120.824Z" fill="#5B359A"/>
<path d="M105.154 8.85382H102.941V17.4791H100.157V8.85382H98.4684V6.07H100.157V2.48753H102.941V6.07H105.154V8.85382Z" fill="#5B359A"/>
<path d="M95.1614 14.045L97.6714 15.4027C97.1466 16.1176 96.4887 16.6919 95.6976 17.1254C94.9066 17.559 94.0433 17.7758 93.1078 17.7758C92.0581 17.7758 91.0998 17.5057 90.2327 16.9657C89.3732 16.4257 88.6848 15.7031 88.1676 14.798C87.658 13.8852 87.4032 12.8774 87.4032 11.7746C87.4032 10.9379 87.5515 10.1583 87.8482 9.43569C88.1448 8.7055 88.5517 8.06659 89.0689 7.51895C89.5938 6.96371 90.2022 6.53016 90.8944 6.21832C91.5865 5.90647 92.3243 5.75054 93.1078 5.75054C94.0433 5.75054 94.9066 5.96731 95.6976 6.40086C96.4887 6.83441 97.1466 7.41627 97.6714 8.14646L95.1614 9.49273C94.8952 9.18849 94.5795 8.9527 94.2144 8.78537C93.857 8.61803 93.4881 8.53437 93.1078 8.53437C92.5601 8.53437 92.0657 8.68649 91.6246 8.99073C91.1834 9.28737 90.8335 9.68289 90.5749 10.1773C90.3163 10.6641 90.187 11.1965 90.187 11.7746C90.187 12.345 90.3163 12.8774 90.5749 13.3718C90.8335 13.8586 91.1834 14.2503 91.6246 14.547C92.0657 14.8436 92.5601 14.9919 93.1078 14.9919C93.5033 14.9919 93.8798 14.9083 94.2373 14.7409C94.5948 14.566 94.9028 14.334 95.1614 14.045Z" fill="#5B359A"/>
<path d="M79.9681 17.7856C78.8505 17.7856 77.8355 17.5169 76.9253 16.9809C76.0152 16.4449 75.2916 15.7195 74.7569 14.8072C74.2222 13.8949 73.9542 12.8786 73.9542 11.757C73.9542 10.6355 74.221 9.62786 74.7569 8.73162C75.2916 7.83539 76.014 7.11865 76.9253 6.58264C77.8355 6.04663 78.8493 5.77801 79.9681 5.77801C81.0869 5.77801 82.1242 6.04168 83.0343 6.57026C83.9444 7.09884 84.6668 7.81558 85.2028 8.71924C85.7375 9.62414 86.0054 10.6367 86.0054 11.757C86.0054 12.8773 85.7375 13.8949 85.2028 14.8072C84.6681 15.7195 83.9444 16.4449 83.0343 16.9809C82.1242 17.5169 81.1017 17.7856 79.9681 17.7856ZM79.9681 15.2405C80.6226 15.2405 81.2017 15.0932 81.7056 14.7961C82.2082 14.5002 82.5996 14.088 82.8799 13.5594C83.159 13.0308 83.2998 12.4304 83.2998 11.7583C83.2998 11.0861 83.1566 10.4931 82.8688 9.98066C82.5811 9.46817 82.1896 9.06462 81.6945 8.76752C81.1993 8.47167 80.6238 8.32312 79.9693 8.32312C79.3148 8.32312 78.7591 8.47167 78.2566 8.76752C77.754 9.06338 77.3625 9.46817 77.0822 9.98066C76.8031 10.4931 76.6636 11.0849 76.6636 11.7583C76.6636 12.4317 76.8031 13.0308 77.0822 13.5594C77.3613 14.088 77.7527 14.5002 78.2566 14.7961C78.7591 15.0919 79.3309 15.2405 79.9693 15.2405H79.9681Z" fill="#553791"/>
<path d="M112.227 17.7856C111.109 17.7856 110.094 17.5169 109.184 16.9809C108.274 16.4449 107.55 15.7195 107.015 14.8072C106.481 13.8949 106.213 12.8786 106.213 11.757C106.213 10.6355 106.48 9.62786 107.015 8.73162C107.55 7.83539 108.273 7.11865 109.184 6.58264C110.094 6.04663 111.108 5.77801 112.227 5.77801C113.345 5.77801 114.383 6.04168 115.293 6.57026C116.203 7.09884 116.925 7.81558 117.461 8.71924C117.996 9.62414 118.264 10.6367 118.264 11.757C118.264 12.8773 117.996 13.8949 117.461 14.8072C116.927 15.7195 116.203 16.4449 115.293 16.9809C114.383 17.5169 113.36 17.7856 112.227 17.7856ZM112.227 15.2405C112.881 15.2405 113.46 15.0932 113.964 14.7961C114.467 14.5002 114.858 14.088 115.138 13.5594C115.418 13.0308 115.558 12.4304 115.558 11.7583C115.558 11.0861 115.415 10.4931 115.127 9.98066C114.84 9.46817 114.448 9.06462 113.953 8.76752C113.458 8.47167 112.882 8.32312 112.228 8.32312C111.573 8.32312 111.018 8.47167 110.515 8.76752C110.012 9.06338 109.621 9.46817 109.341 9.98066C109.062 10.4931 108.922 11.0849 108.922 11.7583C108.922 12.4317 109.062 13.0308 109.341 13.5594C109.62 14.088 110.011 14.5002 110.515 14.7961C111.018 15.0919 111.589 15.2405 112.228 15.2405H112.227Z" fill="#553791"/>
<path d="M65.9857 17.7856C64.9471 17.7856 64.0098 17.5219 63.1714 16.9933C62.3329 16.4647 61.6697 15.7492 61.1832 14.8443C60.6954 13.9407 60.4521 12.9268 60.4521 11.8065C60.4521 10.6862 60.6954 9.64889 61.1832 8.74522C61.6697 7.84032 62.3329 7.11987 63.1714 6.58386C64.0098 6.04786 64.9484 5.77923 65.9857 5.77923C66.8637 5.77923 67.6429 5.96739 68.322 6.34371C69.0012 6.72003 69.5396 7.23623 69.9385 7.89232C70.3374 8.5484 70.5374 9.29361 70.5374 10.1255V13.4393C70.5374 14.2724 70.3411 15.0164 69.9509 15.6725C69.5594 16.3286 69.0198 16.846 68.3344 17.2211C67.6478 17.5974 66.8649 17.7856 65.9869 17.7856H65.9857ZM66.4166 15.2875C67.0711 15.2875 67.6416 15.1402 68.1294 14.8431C68.616 14.5472 68.9951 14.135 69.2667 13.6064C69.5384 13.0778 69.6742 12.47 69.6742 11.7818C69.6742 11.0935 69.5384 10.4845 69.2667 9.95712C68.9951 9.42854 68.616 9.01632 68.1294 8.72047C67.6416 8.42461 67.0711 8.27606 66.4166 8.27606C65.7621 8.27606 65.2151 8.42461 64.7273 8.72047C64.2395 9.01632 63.8567 9.42854 63.5776 9.95712C63.2986 10.4857 63.1578 11.0935 63.1578 11.7818C63.1578 12.47 63.2973 13.0791 63.5776 13.6064C63.8567 14.135 64.2408 14.5472 64.7273 14.8431C65.2139 15.1389 65.777 15.2875 66.4166 15.2875ZM72.1428 17.5454H69.5075V14.447L69.9632 11.6369L69.5075 8.85168V0.254519H72.1428V17.5454Z" fill="#553791"/>
<path d="M14.4626 3.90506C14.0156 3.90506 13.6439 3.7528 13.3487 3.44828C13.0536 3.14376 12.9054 2.76744 12.9054 2.31932C12.9054 1.8712 13.0523 1.49488 13.3487 1.19036C13.6439 0.88584 14.0156 0.73358 14.4626 0.73358C14.9096 0.73358 15.3011 0.88584 15.5888 1.19036C15.8765 1.49488 16.0198 1.8712 16.0198 2.31932C16.0198 2.76744 15.8765 3.14376 15.5888 3.44828C15.3011 3.7528 14.9257 3.90506 14.4626 3.90506ZM13.145 17.5454V6.01814H15.7802V17.5454H13.145Z" fill="#553791"/>
<path d="M23.092 17.7856C22.0534 17.7856 21.1162 17.5219 20.2777 16.9933C19.4392 16.4647 18.7761 15.7492 18.2895 14.8443C17.8017 13.9407 17.5585 12.9268 17.5585 11.8065C17.5585 10.6862 17.8017 9.64889 18.2895 8.74522C18.7761 7.84032 19.4392 7.11987 20.2777 6.58386C21.1162 6.04786 22.0547 5.77923 23.092 5.77923C23.97 5.77923 24.7492 5.96739 25.4284 6.34371C26.1076 6.72003 26.646 7.23623 27.0448 7.89232C27.4437 8.5484 27.6438 9.29361 27.6438 10.1255V13.4393C27.6438 14.2724 27.4474 15.0164 27.0572 15.6725C26.6657 16.3286 26.1261 16.846 25.4407 17.2211C24.7541 17.5974 23.9712 17.7856 23.0932 17.7856H23.092ZM23.523 15.2875C24.1774 15.2875 24.748 15.1402 25.2357 14.8431C25.7223 14.5472 26.1014 14.135 26.3731 13.6064C26.6447 13.0778 26.7806 12.47 26.7806 11.7818C26.7806 11.0935 26.6447 10.4845 26.3731 9.95712C26.1014 9.42854 25.7223 9.01632 25.2357 8.72047C24.748 8.42461 24.1774 8.27606 23.523 8.27606C22.8685 8.27606 22.3214 8.42461 21.8336 8.72047C21.3459 9.01632 20.963 9.42854 20.684 9.95712C20.4049 10.4857 20.2641 11.0935 20.2641 11.7818C20.2641 12.47 20.4036 13.0791 20.684 13.6064C20.963 14.135 21.3471 14.5472 21.8336 14.8431C22.3202 15.1389 22.8833 15.2875 23.523 15.2875ZM29.2491 17.5454H26.6139V14.447L27.0695 11.6369L26.6139 8.85168V0.254519H29.2491V17.5454Z" fill="#553791"/>
<path d="M37.0745 17.7856C35.957 17.7856 34.9419 17.5169 34.0318 16.9809C33.1217 16.4449 32.398 15.7195 31.8633 14.8072C31.3286 13.8949 31.0607 12.8786 31.0607 11.757C31.0607 10.6355 31.3274 9.62786 31.8633 8.73162C32.398 7.83539 33.1205 7.11865 34.0318 6.58264C34.9419 6.04663 35.9557 5.77801 37.0745 5.77801C38.1933 5.77801 39.2306 6.04168 40.1408 6.57026C41.0509 7.09884 41.7733 7.81558 42.3092 8.71924C42.8439 9.62414 43.1119 10.6367 43.1119 11.757C43.1119 12.8773 42.8439 13.8949 42.3092 14.8072C41.7745 15.7195 41.0509 16.4449 40.1408 16.9809C39.2306 17.5169 38.2082 17.7856 37.0745 17.7856ZM37.0745 15.2405C37.729 15.2405 38.3082 15.0932 38.812 14.7961C39.3146 14.5002 39.7061 14.088 39.9864 13.5594C40.2655 13.0308 40.4063 12.4304 40.4063 11.7583C40.4063 11.0861 40.263 10.4931 39.9753 9.98066C39.6876 9.46817 39.2961 9.06462 38.8009 8.76752C38.3057 8.47167 37.7303 8.32312 37.0758 8.32312C36.4213 8.32312 35.8656 8.47167 35.363 8.76752C34.8604 9.06338 34.4689 9.46817 34.1886 9.98066C33.9095 10.4931 33.77 11.0849 33.77 11.7583C33.77 12.4317 33.9095 13.0308 34.1886 13.5594C34.4677 14.088 34.8592 14.5002 35.363 14.7961C35.8656 15.0919 36.4373 15.2405 37.0758 15.2405H37.0745Z" fill="#553791"/>
<path d="M48.4688 17.7856C47.8304 17.7856 47.2154 17.7014 46.6239 17.533C46.0324 17.3647 45.4903 17.1245 44.9951 16.8126C44.4999 16.5006 44.0689 16.1206 43.7009 15.6725L45.3779 13.9914C45.7768 14.4556 46.2361 14.8047 46.756 15.0362C47.2747 15.2689 47.8612 15.3841 48.517 15.3841C49.1072 15.3841 49.5555 15.2962 49.858 15.1204C50.1618 14.9446 50.3137 14.6884 50.3137 14.3517C50.3137 14.0149 50.1705 13.7278 49.8827 13.5346C49.595 13.3428 49.2246 13.1781 48.7689 13.042C48.3132 12.9058 47.8341 12.7659 47.3315 12.6223C46.8289 12.4787 46.3497 12.2819 45.8941 12.0343C45.4384 11.7867 45.0679 11.4463 44.7802 11.0143C44.4925 10.5823 44.3492 10.0215 44.3492 9.33323C44.3492 8.59669 44.5209 7.96412 44.8642 7.43554C45.2075 6.90696 45.694 6.49846 46.3251 6.21127C46.9561 5.92284 47.7106 5.77924 48.5886 5.77924C49.5147 5.77924 50.3335 5.94388 51.0448 6.27192C51.7548 6.59997 52.35 7.09265 52.8292 7.74873L51.1522 9.42979C50.8163 9.01386 50.4335 8.70191 50.0025 8.4927C49.5716 8.28474 49.0764 8.18075 48.517 8.18075C47.9897 8.18075 47.5822 8.26122 47.2957 8.42091C47.0079 8.58059 46.8647 8.81332 46.8647 9.11784C46.8647 9.43845 47.0079 9.68603 47.2957 9.86181C47.5834 10.0376 47.9539 10.1899 48.4095 10.3186C48.8652 10.4473 49.3443 10.5872 49.8469 10.7382C50.3495 10.8905 50.8287 11.0985 51.2843 11.3621C51.74 11.6258 52.1105 11.9786 52.3982 12.4193C52.6859 12.86 52.8292 13.4319 52.8292 14.1363C52.8292 15.2565 52.4377 16.1454 51.6548 16.8014C50.8719 17.4575 49.8099 17.7856 48.4688 17.7856Z" fill="#553791"/>
<path d="M6.02962 17.7596C4.4181 17.7596 2.9029 17.1307 1.76434 15.9881C-0.588112 13.6299 -0.588112 9.79372 1.76434 7.43553C2.90413 6.29296 4.4181 5.66411 6.02962 5.66411C7.64114 5.66411 9.15634 6.29296 10.2949 7.43553L11.1877 8.33053L6.94714 12.5815L5.16026 10.7902L7.4485 8.49641C7.00641 8.29958 6.52481 8.19684 6.02715 8.19684C5.09111 8.19684 4.21064 8.56202 3.54751 9.22677C2.18049 10.5971 2.18049 12.8266 3.54751 14.1969C4.2094 14.8604 5.08987 15.2268 6.02715 15.2268C6.96442 15.2268 7.84366 14.8617 8.50679 14.1969L9.39961 13.3019L11.1865 15.0931L10.2937 15.9881C9.15387 17.1307 7.6399 17.7596 6.02838 17.7596H6.02962Z" fill="#553791"/>
</svg>
