<svg width="224" height="40" viewBox="0 0 224 40" fill="none" xmlns="http://www.w3.org/2000/svg">
<path d="M25.9009 6.53815C25.1003 6.53815 24.4347 6.26547 23.9061 5.7201C23.3776 5.17474 23.1122 4.5008 23.1122 3.69827C23.1122 2.89575 23.3754 2.2218 23.9061 1.67644C24.4347 1.13108 25.1003 0.858398 25.9009 0.858398C26.7015 0.858398 27.4025 1.13108 27.9178 1.67644C28.4331 2.2218 28.6897 2.89575 28.6897 3.69827C28.6897 4.5008 28.4331 5.17474 27.9178 5.7201C27.4025 6.26547 26.7302 6.53815 25.9009 6.53815ZM23.5412 30.9664V10.3224H28.2606V30.9664H23.5412Z" fill="white"/>
<path d="M41.355 31.396C39.4952 31.396 37.8166 30.9238 36.315 29.9772C34.8133 29.0306 33.6258 27.7492 32.7544 26.1286C31.8809 24.5103 31.4452 22.6946 31.4452 20.6883C31.4452 18.682 31.8809 16.8242 32.7544 15.2059C33.6258 13.5853 34.8133 12.295 36.315 11.3351C37.8166 10.3752 39.4974 9.89411 41.355 9.89411C42.9274 9.89411 44.3229 10.2311 45.5393 10.905C46.7556 11.579 47.7198 12.5034 48.4342 13.6784C49.1485 14.8534 49.5067 16.188 49.5067 17.6777V23.6124C49.5067 25.1044 49.1551 26.4368 48.4563 27.6117C47.7552 28.7867 46.7888 29.7134 45.5614 30.3851C44.3318 31.059 42.9297 31.396 41.3573 31.396H41.355ZM42.1269 26.9223C43.299 26.9223 44.3207 26.6585 45.1943 26.1264C46.0656 25.5966 46.7445 24.8583 47.2311 23.9117C47.7176 22.9651 47.9609 21.8766 47.9609 20.644C47.9609 19.4114 47.7176 18.3206 47.2311 17.3762C46.7445 16.4296 46.0656 15.6914 45.1943 15.1615C44.3207 14.6317 43.299 14.3656 42.1269 14.3656C40.9548 14.3656 39.9751 14.6317 39.1015 15.1615C38.2279 15.6914 37.5424 16.4296 37.0426 17.3762C36.5428 18.3228 36.2907 19.4114 36.2907 20.644C36.2907 21.8766 36.5406 22.9673 37.0426 23.9117C37.5424 24.8583 38.2302 25.5966 39.1015 26.1264C39.9728 26.6562 40.9813 26.9223 42.1269 26.9223ZM52.3817 30.9659H47.6623V25.417L48.4784 20.3846L47.6623 15.3965V0H52.3817V30.9659Z" fill="white"/>
<path d="M66.3961 31.3962C64.3947 31.3962 62.5768 30.9151 60.9469 29.9552C59.317 28.9953 58.0211 27.6962 57.0635 26.0623C56.1059 24.4284 55.626 22.6083 55.626 20.5998C55.626 18.5913 56.1037 16.7867 57.0635 15.1817C58.0211 13.5766 59.3148 12.293 60.9469 11.3331C62.5768 10.3732 64.3925 9.89209 66.3961 9.89209C68.3998 9.89209 70.2574 10.3643 71.8873 11.3109C73.5172 12.2575 74.811 13.5411 75.7708 15.1595C76.7284 16.7801 77.2083 18.5935 77.2083 20.5998C77.2083 22.6061 76.7284 24.4284 75.7708 26.0623C74.8132 27.6962 73.5172 28.9953 71.8873 29.9552C70.2574 30.9151 68.4263 31.3962 66.3961 31.3962ZM66.3961 26.8382C67.5682 26.8382 68.6054 26.5744 69.5077 26.0424C70.4078 25.5125 71.1089 24.7743 71.6109 23.8277C72.1107 22.881 72.3628 21.8058 72.3628 20.602C72.3628 19.3982 72.1063 18.3363 71.591 17.4185C71.0757 16.5007 70.3747 15.778 69.4878 15.246C68.601 14.7161 67.5704 14.4501 66.3983 14.4501C65.2262 14.4501 64.231 14.7161 63.3309 15.246C62.4308 15.7758 61.7298 16.5007 61.2278 17.4185C60.728 18.3363 60.4781 19.396 60.4781 20.602C60.4781 21.808 60.728 22.881 61.2278 23.8277C61.7276 24.7743 62.4286 25.5125 63.3309 26.0424C64.231 26.5722 65.255 26.8382 66.3983 26.8382H66.3961Z" fill="white"/>
<path d="M86.802 31.3959C85.6587 31.3959 84.5573 31.2452 83.498 30.9437C82.4387 30.6422 81.4678 30.2121 80.581 29.6535C79.6942 29.0948 78.9223 28.4142 78.2633 27.6117L81.2666 24.6011C81.9809 25.4324 82.8036 26.0576 83.7346 26.4722C84.6635 26.889 85.7139 27.0951 86.8883 27.0951C87.9454 27.0951 88.7482 26.9377 89.29 26.6229C89.834 26.3081 90.106 25.8492 90.106 25.2462C90.106 24.6432 89.8495 24.1289 89.3342 23.783C88.8189 23.4394 88.1555 23.1446 87.3394 22.9007C86.5234 22.6569 85.6653 22.4063 84.7652 22.1492C83.8651 21.892 83.007 21.5395 82.191 21.0961C81.3749 20.6528 80.7115 20.0431 80.1962 19.2694C79.6809 18.4957 79.4244 17.4914 79.4244 16.2588C79.4244 14.9398 79.7318 13.8069 80.3466 12.8603C80.9614 11.9137 81.8327 11.1821 82.9628 10.6677C84.0929 10.1512 85.4441 9.89404 87.0165 9.89404C88.6752 9.89404 90.1414 10.1889 91.4153 10.7764C92.6869 11.3639 93.7528 12.2462 94.6109 13.4212L91.6077 16.4317C91.0061 15.6869 90.3206 15.1282 89.5487 14.7535C88.7769 14.3811 87.8901 14.1949 86.8883 14.1949C85.9439 14.1949 85.2141 14.339 84.7011 14.625C84.1858 14.9109 83.9292 15.3277 83.9292 15.8731C83.9292 16.4473 84.1858 16.8906 84.7011 17.2054C85.2163 17.5202 85.8798 17.7929 86.6959 18.0235C87.5119 18.254 88.37 18.5046 89.2701 18.775C90.1702 19.0477 91.0282 19.4201 91.8443 19.8924C92.6604 20.3646 93.3238 20.9964 93.8391 21.7856C94.3544 22.5748 94.6109 23.599 94.6109 24.8605C94.6109 26.8668 93.9099 28.4585 92.5078 29.6335C91.1056 30.8085 89.2037 31.3959 86.802 31.3959Z" fill="white"/>
<path d="M115.718 31.396C113.858 31.396 112.179 30.9238 110.678 29.9772C109.176 29.0306 107.988 27.7492 107.117 26.1286C106.243 24.5103 105.808 22.6946 105.808 20.6883C105.808 18.682 106.243 16.8242 107.117 15.2059C107.988 13.5853 109.176 12.295 110.678 11.3351C112.179 10.3752 113.86 9.89411 115.718 9.89411C117.29 9.89411 118.685 10.2311 119.902 10.905C121.118 11.579 122.082 12.5034 122.797 13.6784C123.511 14.8534 123.869 16.188 123.869 17.6777V23.6124C123.869 25.1044 123.518 26.4368 122.819 27.6117C122.118 28.7867 121.151 29.7134 119.924 30.3851C118.694 31.059 117.292 31.396 115.72 31.396H115.718ZM116.489 26.9223C117.662 26.9223 118.683 26.6585 119.557 26.1264C120.428 25.5966 121.107 24.8583 121.594 23.9117C122.08 22.9651 122.323 21.8766 122.323 20.644C122.323 19.4114 122.08 18.3206 121.594 17.3762C121.107 16.4296 120.428 15.6914 119.557 15.1615C118.683 14.6317 117.662 14.3656 116.489 14.3656C115.317 14.3656 114.338 14.6317 113.464 15.1615C112.59 15.6914 111.905 16.4296 111.405 17.3762C110.905 18.3228 110.653 19.4114 110.653 20.644C110.653 21.8766 110.903 22.9673 111.405 23.9117C111.905 24.8583 112.593 25.5966 113.464 26.1264C114.335 26.6562 115.344 26.9223 116.489 26.9223ZM126.744 30.9659H122.025V25.417L122.841 20.3846L122.025 15.3965V0H126.744V30.9659Z" fill="white"/>
<path d="M160.127 31.3959C158.984 31.3959 157.883 31.2452 156.823 30.9437C155.764 30.6422 154.793 30.2121 153.906 29.6535C153.02 29.0948 152.248 28.4142 151.589 27.6117L154.592 24.6011C155.306 25.4324 156.129 26.0576 157.06 26.4722C157.989 26.889 159.039 27.0951 160.214 27.0951C161.271 27.0951 162.074 26.9377 162.615 26.6229C163.159 26.3081 163.431 25.8492 163.431 25.2462C163.431 24.6432 163.175 24.1289 162.66 23.783C162.144 23.4394 161.481 23.1446 160.665 22.9007C159.849 22.6569 158.991 22.4063 158.091 22.1492C157.191 21.892 156.332 21.5395 155.516 21.0961C154.7 20.6528 154.037 20.0431 153.522 19.2694C153.006 18.4957 152.75 17.4914 152.75 16.2588C152.75 14.9398 153.057 13.8069 153.672 12.8603C154.287 11.9137 155.158 11.1821 156.288 10.6677C157.418 10.1512 158.77 9.89404 160.342 9.89404C162.001 9.89404 163.467 10.1889 164.741 10.7764C166.012 11.3639 167.078 12.2462 167.936 13.4212L164.933 16.4317C164.332 15.6869 163.646 15.1282 162.874 14.7535C162.102 14.3811 161.216 14.1949 160.214 14.1949C159.269 14.1949 158.54 14.339 158.027 14.625C157.511 14.9109 157.255 15.3277 157.255 15.8731C157.255 16.4473 157.511 16.8906 158.027 17.2054C158.542 17.5202 159.205 17.7929 160.021 18.0235C160.837 18.254 161.695 18.5046 162.596 18.775C163.496 19.0477 164.354 19.4201 165.17 19.8924C165.986 20.3646 166.649 20.9964 167.165 21.7856C167.68 22.5748 167.936 23.599 167.936 24.8605C167.936 26.8668 167.235 28.4585 165.833 29.6335C164.431 30.8085 162.529 31.3959 160.127 31.3959Z" fill="white"/>
<path d="M173.525 6.53815C172.724 6.53815 172.059 6.26547 171.53 5.7201C171.001 5.17474 170.736 4.5008 170.736 3.69827C170.736 2.89575 170.999 2.2218 171.53 1.67644C172.059 1.13108 172.724 0.858398 173.525 0.858398C174.325 0.858398 175.026 1.13108 175.542 1.67644C176.057 2.2218 176.314 2.89575 176.314 3.69827C176.314 4.5008 176.057 5.17474 175.542 5.7201C175.026 6.26547 174.354 6.53815 173.525 6.53815ZM171.165 30.9664V10.3224H175.885V30.9664H171.165Z" fill="white"/>
<path d="M188.747 30.536C186.916 30.536 185.264 30.0838 183.791 29.1815C182.318 28.2792 181.159 27.0377 180.317 25.4615C179.472 23.8853 179.052 22.1206 179.052 20.1719C179.052 18.2233 179.474 16.4741 180.317 14.9245C181.159 13.3771 182.318 12.1511 183.791 11.2466C185.264 10.3443 186.916 9.89209 188.747 9.89209C190.377 9.89209 191.808 10.2224 193.037 10.8808C194.267 11.5415 195.224 12.4504 195.912 13.6121C196.598 14.7737 196.943 16.1283 196.943 17.6757V22.7502C196.943 24.271 196.593 25.6167 195.892 26.7939C195.191 27.9689 194.225 28.8867 192.997 29.5473C191.768 30.2079 190.352 30.536 188.749 30.536H188.747ZM188.961 39.9979C186.787 39.9979 184.886 39.6032 183.256 38.8162C181.626 38.027 180.31 36.9163 179.308 35.482L182.398 32.385C183.227 33.418 184.171 34.1917 185.228 34.7083C186.285 35.2248 187.559 35.482 189.048 35.482C190.908 35.482 192.378 35.0009 193.466 34.041C194.552 33.0811 195.096 31.7687 195.096 30.106V25.0314L195.912 20.4734L195.096 15.8711V10.3222H199.816V30.106C199.816 32.0835 199.358 33.8104 198.442 35.2891C197.527 36.7656 196.255 37.9184 194.623 38.752C192.993 39.5833 191.104 40.0001 188.959 40.0001L188.961 39.9979ZM189.691 26.0623C190.835 26.0623 191.836 25.8184 192.694 25.3307C193.553 24.843 194.218 24.1624 194.689 23.2889C195.16 22.4155 195.397 21.389 195.397 20.2141C195.397 19.0391 195.16 18.0149 194.689 17.1392C194.218 16.2657 193.553 15.5851 192.694 15.0974C191.836 14.6097 190.835 14.3658 189.691 14.3658C188.548 14.3658 187.539 14.6097 186.666 15.0974C185.792 15.5851 185.113 16.2657 184.629 17.1392C184.142 18.0149 183.899 19.0391 183.899 20.2141C183.899 21.389 184.142 22.38 184.629 23.2668C185.116 24.1558 185.794 24.843 186.666 25.3307C187.537 25.8184 188.546 26.0623 189.691 26.0623Z" fill="white"/>
<path d="M204.243 30.9661V10.3222H208.962V30.9661H204.243ZM218.359 30.9661V19.0524C218.359 17.6757 217.924 16.5429 217.05 15.6539C216.176 14.7649 215.055 14.3215 213.682 14.3215C212.766 14.3215 211.95 14.5232 211.236 14.9245C210.522 15.3258 209.962 15.8844 209.562 16.6027C209.161 17.3188 208.96 18.1368 208.96 19.0546L207.116 18.0215C207.116 16.4453 207.459 15.0464 208.146 13.8271C208.832 12.6078 209.783 11.6479 210.999 10.9451C212.216 10.2424 213.58 9.89209 215.097 9.89209C216.614 9.89209 218.014 10.2867 219.215 11.0737C220.416 11.8629 221.36 12.8805 222.046 14.1264C222.731 15.3745 223.076 16.6714 223.076 18.0193V30.9639H218.357L218.359 30.9661Z" fill="white"/>
<path d="M10.7983 31.3495C7.9123 31.3495 5.19875 30.2233 3.15972 28.1771C-1.05324 23.9539 -1.05324 17.0836 3.15972 12.8604C5.20096 10.8142 7.9123 9.68799 10.7983 9.68799C13.6844 9.68799 16.3979 10.8142 18.437 12.8604L20.0359 14.4632L12.4415 22.0761L9.24142 18.8683L13.3394 14.7603C12.5477 14.4078 11.6852 14.2238 10.7939 14.2238C9.11758 14.2238 7.54076 14.8778 6.35317 16.0683C3.90501 18.5224 3.90501 22.5151 6.35317 24.9692C7.53855 26.1575 9.11537 26.8137 10.7939 26.8137C12.4725 26.8137 14.0471 26.1597 15.2347 24.9692L16.8336 23.3664L20.0337 26.5743L18.4347 28.1771C16.3935 30.2233 13.6822 31.3495 10.7961 31.3495H10.7983Z" fill="white"/>
<path d="M140.836 31.3495C137.95 31.3495 135.237 30.2233 133.198 28.1771C128.985 23.9539 128.985 17.0836 133.198 12.8604C135.239 10.8142 137.95 9.68799 140.836 9.68799C143.722 9.68799 146.436 10.8142 148.475 12.8604L150.074 14.4632L142.479 22.0761L139.279 18.8683L143.377 14.7603C142.586 14.4078 141.723 14.2238 140.832 14.2238C139.155 14.2238 137.579 14.8778 136.391 16.0683C133.943 18.5224 133.943 22.5151 136.391 24.9692C137.576 26.1575 139.153 26.8137 140.832 26.8137C142.51 26.8137 144.085 26.1597 145.273 24.9692L146.871 23.3664L150.072 26.5743L148.473 28.1771C146.431 30.2233 143.72 31.3495 140.834 31.3495H140.836Z" fill="white"/>
</svg>
