<svg width="20" height="12" viewBox="0 0 20 12" fill="none" xmlns="http://www.w3.org/2000/svg">
<path d="M17.4341 0.251931C17.2971 0.0121718 16.9917 -0.0711266 16.7519 0.0658784L12.8448 2.2985C12.6051 2.43551 12.5218 2.74094 12.6588 2.98069C12.7958 3.22045 13.1012 3.30375 13.341 3.16675L16.8139 1.18219L18.7985 4.65516C18.9355 4.89492 19.2409 4.97822 19.4807 4.84122C19.7205 4.70421 19.8038 4.39878 19.6667 4.15902L17.4341 0.251931ZM0 11.5V12C11.4636 12 16.4337 4.47659 17.4824 0.631559L17 0.5L16.5176 0.368441C15.5663 3.85674 10.9364 11 0 11V11.5Z" fill="#565F6E"/>
</svg>
