<svg width="24" height="19" viewBox="0 0 24 19" fill="none" xmlns="http://www.w3.org/2000/svg">
<path d="M12 0C9.89353 5.46491e-05 7.82419 0.566368 5.99995 1.64202C4.17572 2.71767 2.66087 4.26477 1.60766 6.1278C0.554449 7.99084 -1.33783e-05 10.1042 2.42101e-10 12.2554C1.33788e-05 14.4067 0.554502 16.52 1.60774 18.383C1.76687 18.6658 2.02948 18.8724 2.3378 18.9575C2.64612 19.0425 2.97488 18.999 3.25178 18.8365C3.52867 18.6739 3.73101 18.4057 3.81428 18.0909C3.89754 17.776 3.85492 17.4403 3.69579 17.1575C2.8455 15.6698 2.39818 13.9779 2.39976 12.2553C2.40033 10.7518 2.73949 9.2686 3.39101 7.92034C4.04253 6.57207 4.98896 5.3949 6.15711 4.47983C7.32526 3.56477 8.68384 2.93634 10.1278 2.64313C11.5717 2.34992 13.0624 2.39979 14.4844 2.78888C15.9065 3.17797 17.2219 3.89586 18.3289 4.88704C19.4359 5.87822 20.3049 7.11613 20.8686 8.50505C21.4323 9.89397 21.6757 11.3967 21.5799 12.897C21.4841 14.3973 21.0517 15.8551 20.3162 17.1575C20.2369 17.2973 20.1854 17.4519 20.1648 17.6121C20.1442 17.7724 20.1548 17.9353 20.1961 18.0913C20.2373 18.2474 20.3084 18.3936 20.4053 18.5215C20.5021 18.6493 20.6227 18.7564 20.7602 18.8365C21.0358 18.9962 21.362 19.0382 21.6678 18.9533C21.9735 18.8683 22.234 18.6633 22.3923 18.383C23.4455 16.52 24 14.4067 24 12.2554C24 10.1042 23.4455 7.99084 22.3923 6.1278C21.3391 4.26477 19.8243 2.71767 18 1.64202C16.1758 0.566368 14.1065 5.46491e-05 12 0ZM15.4081 7.05908L13.548 8.9464C13.0666 8.70396 12.5368 8.57815 12 8.57874C11.288 8.57874 10.5919 8.79437 9.9999 9.19836C9.40786 9.60235 8.94643 10.1766 8.67395 10.8484C8.40147 11.5202 8.33017 12.2594 8.46908 12.9726C8.60799 13.6858 8.95087 14.3409 9.45435 14.8551C9.95783 15.3693 10.5993 15.7194 11.2977 15.8613C11.996 16.0032 12.7199 15.9304 13.3777 15.6521C14.0355 15.3738 14.5978 14.9026 14.9934 14.2979C15.3889 13.6933 15.6001 12.9825 15.6001 12.2553C15.5993 11.7112 15.4761 11.1745 15.2401 10.6867L17.1001 8.79933C17.2126 8.6854 17.3019 8.54986 17.3628 8.40052C17.4237 8.25117 17.4551 8.09099 17.4551 7.9292C17.4551 7.76742 17.4237 7.60724 17.3628 7.45789C17.3019 7.30855 17.2126 7.17301 17.1001 7.05908C16.8753 6.83082 16.5711 6.7027 16.2541 6.7027C15.9371 6.7027 15.6329 6.83082 15.4081 7.05908ZM12 13.4809C11.6817 13.4809 11.3765 13.3518 11.1515 13.1219C10.9264 12.8921 10.8 12.5804 10.8 12.2553C10.8 11.9303 10.9264 11.6186 11.1515 11.3888C11.3765 11.1589 11.6817 11.0298 12 11.0298C12.3131 11.0279 12.6146 11.151 12.84 11.373C12.9549 11.4879 13.0459 11.6252 13.1077 11.7768C13.1696 11.9284 13.201 12.0911 13.2 12.2553C13.2 12.5804 13.0736 12.8921 12.8485 13.1219C12.6235 13.3518 12.3183 13.4809 12 13.4809Z" fill="white"/>
</svg>
