<svg width="18" height="12" viewBox="0 0 18 12" fill="none" xmlns="http://www.w3.org/2000/svg">
<path d="M17.5877 0.347263C17.4686 0.237227 17.327 0.149889 17.1709 0.0902873C17.0148 0.0306856 16.8474 0 16.6783 0C16.5092 0 16.3418 0.0306856 16.1858 0.0902873C16.0297 0.149889 15.888 0.237227 15.769 0.347263L6.22709 9.10519L2.21822 5.41888C2.0946 5.30942 1.94867 5.22335 1.78875 5.16558C1.62884 5.10782 1.45808 5.07949 1.28622 5.08222C1.11437 5.08494 0.944779 5.11867 0.787141 5.18147C0.629504 5.24427 0.486905 5.33491 0.367486 5.44823C0.248068 5.56154 0.154168 5.69531 0.0911484 5.84189C0.0281286 5.98846 -0.00277745 6.14498 0.000195856 6.30251C0.00316916 6.46004 0.0399634 6.61548 0.108477 6.75997C0.176991 6.90447 0.275883 7.03518 0.399506 7.14464L5.31773 11.6527C5.4368 11.7628 5.57845 11.8501 5.73453 11.9097C5.8906 11.9693 6.05801 12 6.22709 12C6.39617 12 6.56357 11.9693 6.71965 11.9097C6.87573 11.8501 7.01738 11.7628 7.13645 11.6527L17.5877 2.07302C17.7177 1.96309 17.8214 1.82966 17.8924 1.68115C17.9634 1.53264 18 1.37227 18 1.21014C18 1.04801 17.9634 0.88764 17.8924 0.739132C17.8214 0.590623 17.7177 0.457197 17.5877 0.347263Z" fill="#18CC00"/>
</svg>
