<svg width="24" height="23" viewBox="0 0 24 23" fill="none" xmlns="http://www.w3.org/2000/svg">
<path d="M21.7083 13.7977C21.4053 13.7977 21.1147 13.9189 20.9004 14.1346C20.6861 14.3503 20.5658 14.6429 20.5658 14.948V19.5491C20.5658 19.8542 20.4454 20.1468 20.2311 20.3625C20.0168 20.5782 19.7262 20.6994 19.4232 20.6994H3.42762C3.1246 20.6994 2.83399 20.5782 2.61973 20.3625C2.40546 20.1468 2.28508 19.8542 2.28508 19.5491V8.51789L9.00323 15.2931C9.64591 15.9393 10.5171 16.3023 11.4254 16.3023C12.3337 16.3023 13.2049 15.9393 13.8476 15.2931L15.7214 13.4066C15.9365 13.19 16.0574 12.8962 16.0574 12.5899C16.0574 12.2836 15.9365 11.9898 15.7214 11.7732C15.5062 11.5566 15.2144 11.4349 14.9102 11.4349C14.6059 11.4349 14.3141 11.5566 14.099 11.7732L12.2252 13.6597C12.0116 13.8704 11.7245 13.9885 11.4254 13.9885C11.1264 13.9885 10.8392 13.8704 10.6256 13.6597L3.89607 6.89599H11.4254C11.7284 6.89599 12.019 6.77479 12.2333 6.55907C12.4476 6.34335 12.568 6.05077 12.568 5.7457C12.568 5.44062 12.4476 5.14804 12.2333 4.93232C12.019 4.7166 11.7284 4.59541 11.4254 4.59541H3.42762C2.51856 4.59541 1.64673 4.95898 1.00393 5.60615C0.361124 6.25331 0 7.13105 0 8.04627V19.5491C0 20.4644 0.361124 21.3421 1.00393 21.9893C1.64673 22.6364 2.51856 23 3.42762 23H19.4232C20.3323 23 21.2041 22.6364 21.8469 21.9893C22.4897 21.3421 22.8508 20.4644 22.8508 19.5491V14.948C22.8508 14.6429 22.7305 14.3503 22.5162 14.1346C22.3019 13.9189 22.0113 13.7977 21.7083 13.7977ZM23.662 3.77871L20.2344 0.327847C20.1258 0.223125 19.9976 0.141034 19.8574 0.0862871C19.5792 -0.0287624 19.2672 -0.0287624 18.989 0.0862871C18.8488 0.141034 18.7207 0.223125 18.612 0.327847L15.1844 3.77871C14.9692 3.99531 14.8484 4.28909 14.8484 4.59541C14.8484 4.90173 14.9692 5.19551 15.1844 5.41212C15.3995 5.62872 15.6913 5.7504 15.9956 5.7504C16.2998 5.7504 16.5916 5.62872 16.8068 5.41212L18.2807 3.91674V10.3468C18.2807 10.6519 18.401 10.9445 18.6153 11.1602C18.8296 11.3759 19.1202 11.4971 19.4232 11.4971C19.7262 11.4971 20.0168 11.3759 20.2311 11.1602C20.4454 10.9445 20.5658 10.6519 20.5658 10.3468V3.91674L22.0396 5.41212C22.1458 5.51993 22.2722 5.6055 22.4114 5.6639C22.5507 5.7223 22.7 5.75237 22.8508 5.75237C23.0017 5.75237 23.151 5.7223 23.2902 5.6639C23.4295 5.6055 23.5558 5.51993 23.662 5.41212C23.7691 5.30518 23.8541 5.17796 23.9121 5.03779C23.9701 4.89761 24 4.74726 24 4.59541C24 4.44356 23.9701 4.29321 23.9121 4.15304C23.8541 4.01286 23.7691 3.88564 23.662 3.77871Z" fill="white"/>
</svg>
