<svg width="24" height="24" viewBox="0 0 24 24" fill="none" xmlns="http://www.w3.org/2000/svg">
<path d="M23.9081 9.1026C23.6683 8.5019 22.9488 8.26162 22.3492 8.5019L18.8717 10.1839L16.3534 7.66092L13.8352 5.13797L15.514 1.6539C15.7539 1.0532 15.514 0.332357 14.9145 0.0920764C14.3149 -0.148204 13.5954 0.0920763 13.3556 0.692778L11.5568 4.41713L3.88225 5.61853C3.40259 5.73867 3.04285 6.09909 2.92293 6.57965L0.0449682 20.5159C-0.074947 20.8764 0.0449682 21.3569 0.404714 21.5972L2.44327 23.6396C2.6831 23.8799 3.04285 24 3.28268 24H3.52251L17.4327 21.1166C17.9123 20.9965 18.2721 20.6361 18.392 20.1555L19.5911 12.4665L23.3085 10.6644C23.9081 10.4241 24.1479 9.7033 23.9081 9.1026ZM16.1136 18.9541L4.36192 21.3569L8.79878 16.9117C10.5975 17.7527 12.756 17.0319 13.5954 15.2298C14.4348 13.4277 13.7153 11.2651 11.9166 10.4241C10.5975 9.82344 8.91869 10.0637 7.83946 11.145C6.76022 12.2262 6.52039 13.9082 7.11997 15.2298L2.6831 19.6749L5.08141 7.9012L12.0365 6.69979L14.6746 9.34288L17.3128 11.986L16.1136 18.9541ZM9.15852 13.6679C9.15852 13.3075 9.27844 13.0672 9.51827 12.8269C9.99793 12.3464 10.7174 12.3464 11.1971 12.8269C11.6767 13.3075 11.6767 14.0284 11.1971 14.5089C10.7174 14.9895 9.99793 14.9895 9.51827 14.5089C9.27844 14.2686 9.15852 13.9082 9.15852 13.6679Z" fill="white"/>
</svg>
