<svg width="24" height="22" viewBox="0 0 24 22" fill="none" xmlns="http://www.w3.org/2000/svg">
<path d="M22.8 13.8947C22.4817 13.8947 22.1765 14.0167 21.9515 14.2339C21.7264 14.451 21.6 14.7455 21.6 15.0526V18.5263C21.6 18.8334 21.4736 19.1279 21.2485 19.3451C21.0235 19.5622 20.7183 19.6842 20.4 19.6842H3.6C3.28174 19.6842 2.97652 19.5622 2.75147 19.3451C2.52643 19.1279 2.4 18.8334 2.4 18.5263V7.4221L9.456 14.2421C10.1265 14.8838 11.0316 15.2456 11.976 15.2495C12.575 15.2505 13.1649 15.1072 13.692 14.8326C13.831 14.7599 13.9536 14.6614 14.053 14.5428C14.1524 14.4242 14.2265 14.2878 14.2711 14.1415C14.3157 13.9952 14.33 13.8418 14.3129 13.6902C14.2959 13.5385 14.248 13.3916 14.172 13.2579C14.0966 13.1238 13.9946 13.0054 13.8717 12.9095C13.7487 12.8136 13.6074 12.7421 13.4557 12.6991C13.3041 12.656 13.1451 12.6423 12.988 12.6587C12.8308 12.6752 12.6786 12.7214 12.54 12.7947C12.3174 12.9048 12.0647 12.945 11.8173 12.9097C11.5699 12.8744 11.3401 12.7654 11.16 12.5979L4.092 5.78947H12C12.3183 5.78947 12.6235 5.66748 12.8485 5.45033C13.0736 5.23319 13.2 4.93867 13.2 4.63158C13.2 4.32449 13.0736 4.02997 12.8485 3.81282C12.6235 3.59568 12.3183 3.47368 12 3.47368H3.6C2.64522 3.47368 1.72955 3.83966 1.05442 4.4911C0.379285 5.14254 0 6.02609 0 6.94737V18.5263C0 19.4476 0.379285 20.3311 1.05442 20.9826C1.72955 21.634 2.64522 22 3.6 22H20.4C21.3548 22 22.2705 21.634 22.9456 20.9826C23.6207 20.3311 24 19.4476 24 18.5263V15.0526C24 14.7455 23.8736 14.451 23.6485 14.2339C23.4235 14.0167 23.1183 13.8947 22.8 13.8947ZM22.8 0H16.8C16.4817 0 16.1765 0.121992 15.9515 0.339139C15.7264 0.556287 15.6 0.850802 15.6 1.15789V10.4211C15.6004 10.6323 15.6606 10.8394 15.7742 11.02C15.8878 11.2005 16.0504 11.3477 16.2445 11.4455C16.4385 11.5433 16.6566 11.588 16.8751 11.5748C17.0935 11.5616 17.3041 11.4909 17.484 11.3705L19.8 9.87684L22.092 11.3589C22.3 11.4987 22.5466 11.5753 22.8 11.5789C22.9698 11.5782 23.1375 11.5427 23.292 11.4747C23.5025 11.3834 23.6813 11.2354 23.8069 11.0485C23.9325 10.8617 23.9995 10.6438 24 10.4211V1.15789C24 0.850802 23.8736 0.556287 23.6485 0.339139C23.4235 0.121992 23.1183 0 22.8 0ZM21.6 8.24421L20.472 7.51474C20.2736 7.38531 20.0395 7.31615 19.8 7.31615C19.5605 7.31615 19.3264 7.38531 19.128 7.51474L18 8.24421V2.31579H21.6V8.24421Z" fill="white"/>
</svg>
